<?xml version="1.0" encoding="utf-8"?>
<!-- Generator: Adobe Illustrator 24.0.1, SVG Export Plug-In . SVG Version: 6.00 Build 0)  -->
<svg version="1.1" id="Camada_1" xmlns="http://www.w3.org/2000/svg" xmlns:xlink="http://www.w3.org/1999/xlink" x="0px" y="0px"
	 viewBox="0 0 500 240" style="enable-background:new 0 0 500 240;" xml:space="preserve">
<style type="text/css">
	.st0{fill:#1F140F;}
	.st1{fill:#FFFFFF;stroke:#1F140F;stroke-width:0.5844;stroke-miterlimit:10;}
	.st2{fill:none;}
	.st3{fill:#FFFFFF;}
	.st4{fill:#1F140F;stroke:#FFFFFF;stroke-width:0.1969;stroke-miterlimit:10;}
	.st5{fill:none;stroke:#FFFFFF;stroke-width:0.3795;stroke-miterlimit:10;}
	.st6{fill:none;stroke:#FFFFFF;stroke-width:0.4039;stroke-miterlimit:10;}
	.st7{fill:#1F140F;stroke:#FFFFFF;stroke-width:0.3988;stroke-miterlimit:10;}
</style>
<g>
	<g>
		<g>
			<g>
				<path class="st0" d="M184.87,62.69c-14.01,3.67-21.09-5.66-20.37-9.35c0,0-5.19,13.56,15.85,27.76
					c1.86,1.25,3.51,6.02-0.6,10.12c-4.11,4.11-11.78,0.42-16.25-4.59c-4.46-5-14.55-25.41-30.27-21.36
					c-15.73,4.05-21.63,7.33-30.32,0.18c0,0,5.62,24.28,25.87,29.28c20.25,5.01,46.68,4.48,48.95,19.73
					c1.8,12.14-10.48,13.34-31.45,3.34c-20.97-10.01-40.74-39.55-65.76-21.68c-25.02,17.87-37.53,6.79-37.17-3.93
					c0,0-5,13.94,8.58,21.08c13.58,7.15,24.66,2.14,30.38-1.43c5.72-3.57,19.66,0.18,21.09,9.29c1.61,10.24-9.29,13.94-21.8,11.08
					c-12.51-2.86-48.96-7.51-53.61,14.65c0,0,9.78-14.84,18.94-5.36c10.99,11.39,26.45,44.32,59.33,22.16c0,0,17.15-19.3,27.52-8.93
					c10.36,10.36-0.72,15.72-6.79,17.87c-6.07,2.14-18.58,6.79-15.01,21.09c0,0,0-8.94,8.58-7.51c8.58,1.43,55.4-2.14,46.46-34.31
					c0,0,16.8,7.15,13.58,21.8c-3.22,14.65-19.3,12.51-19.3,12.51s77.2,29.55,77.2-64.57C238.48,76.57,196.49,59.65,184.87,62.69z"
					/>
				<path class="st0" d="M76.85,71.54c0,0-1.12,12.36,9.5,6.64c10.61-5.73,9.79-1.91,11.45,2.82c0,0,1.66-14.11-8.38-10.71
					C83.21,72.4,78.51,78.34,76.85,71.54z"/>
				<path class="st0" d="M16.26,116.2c0,0-1.76,10.98,14.91,5.89c16.66-5.08,15.37-1.69,17.98,2.51c0,0,2.61-12.53-13.16-9.51
					C26.24,116.96,18.87,122.24,16.26,116.2z"/>
				<path class="st0" d="M74.51,184.41c0,0,3.43-6.54,12.77-2.18c9.34,4.36,10.59,1.87,12.77-0.93c0,0-7.94,1.4-13.24-3.74
					C82.66,173.52,75.45,177.87,74.51,184.41z"/>
			</g>
			<g>
				<g>
					<g>
						<path class="st1" d="M200.22,54.07v-0.01c0.99,0,3.84,0.01,3.84,0.01l0,0c11.08,0.02,13.68,7.1,16.03,11.62
							c5.65,10.82,21.22,43.53,21.22,43.53c-8.99,0-9.42-1.41-10.68-3.69c-4.94-8.93-15.02-25.48-20.45-33.7
							c-2.63-3.98-4.81-3.96-6.37-3.96c-0.39,0-0.76,0-1.11,0H102.42c-22.16,0-26.31-13.79-26.31-13.79H200.22z"/>
						<g>
							<g>
								<path class="st2" d="M103.86,53.23"/>
							</g>
							<g>
								<polygon class="st0" points="214.5,58.22 87.67,57.19 214.5,56.15 								"/>
							</g>
							<g>
								<polygon class="st0" points="217.36,62.18 95.97,61.15 217.36,60.11 								"/>
							</g>
							<g>
								<polygon class="st0" points="219.5,66.13 102.91,65.1 219.5,64.07 								"/>
							</g>
							<g>
								<polygon class="st0" points="221.85,70.09 213.07,69.06 221.85,68.03 								"/>
							</g>
							<g>
								<polygon class="st0" points="223.58,74.05 215.79,73.02 223.58,71.99 								"/>
							</g>
							<g>
								<polygon class="st0" points="225.62,78.01 217.5,76.97 225.62,75.94 								"/>
							</g>
							<g>
								<polygon class="st0" points="227.29,81.96 220.01,80.93 227.29,79.9 								"/>
							</g>
							<g>
								<polygon class="st0" points="229.6,85.92 222.6,84.89 229.6,83.86 								"/>
							</g>
							<g>
								<polygon class="st0" points="231.34,89.88 224.91,88.85 231.34,87.81 								"/>
							</g>
							<g>
								<polygon class="st0" points="233.38,93.84 227.33,92.8 233.38,91.77 								"/>
							</g>
							<g>
								<polygon class="st0" points="235.42,97.79 229.68,96.76 235.42,95.73 								"/>
							</g>
							<g>
								<polygon class="st0" points="237.16,101.75 231.92,100.72 237.16,99.69 								"/>
							</g>
							<g>
								<polygon class="st0" points="239.3,105.71 234.06,104.67 239.3,103.64 								"/>
							</g>
						</g>
					</g>
					<g>
						<g>
							<path class="st1" d="M203.8,67.85c1.56,0,3.74-0.02,6.37,3.96c1.72,2.61,3.92,6.06,6.26,9.83h-84.51
								c-22.17,0-26.31-13.79-26.31-13.79h97.62C203.42,67.85,203.61,67.85,203.8,67.85z"/>
							<path class="st1" d="M224.81,95.43h-59.33c-22.17,0-26.31-13.8-26.31-13.8h77.27C219.18,86.05,222.14,90.92,224.81,95.43z"/>
							<path class="st1" d="M230.63,105.51c0.97,1.75,1.46,2.98,5.66,3.47l0.13,0.24c-0.05,0-0.1,0.01-0.15,0.01h-33.78
								c-22.17,0-26.31-13.79-26.31-13.79h48.65C227.05,99.21,229.09,102.73,230.63,105.51z"/>
						</g>
						<g>
							<g>
								<polygon class="st0" points="209.16,71.24 106.99,70.43 209.16,69.61 								"/>
							</g>
							<g>
								<polygon class="st0" points="210.69,73.83 108.89,73.01 210.69,72.2 								"/>
							</g>
							<g>
								<polygon class="st0" points="212.53,76.42 111.48,75.6 212.53,74.78 								"/>
							</g>
							<g>
								<polygon class="st0" points="214.16,79 115.83,78.19 214.16,77.37 								"/>
							</g>
							<g>
								<polygon class="st0" points="215.9,81.59 122.77,80.77 215.9,79.96 								"/>
							</g>
							<g>
								<polygon class="st0" points="217.53,84.18 139.91,83.36 217.53,82.55 								"/>
							</g>
							<g>
								<polygon class="st0" points="218.96,86.76 141.68,85.95 218.96,85.13 								"/>
							</g>
							<g>
								<polygon class="st0" points="220.69,89.35 144.13,88.53 220.69,87.72 								"/>
							</g>
							<g>
								<polygon class="st0" points="222.33,91.94 147.8,91.12 222.33,90.31 								"/>
							</g>
							<g>
								<polygon class="st0" points="223.65,94.52 153.92,93.71 223.65,92.89 								"/>
							</g>
							<g>
								<polygon class="st0" points="225.39,97.11 176.92,96.3 225.39,95.48 								"/>
							</g>
							<g>
								<polygon class="st0" points="226.72,99.7 178.28,98.88 226.72,98.07 								"/>
							</g>
							<g>
								<polygon class="st0" points="228.24,102.28 180.46,101.47 228.24,100.65 								"/>
							</g>
							<g>
								<polygon class="st0" points="229.68,104.87 184.27,104.06 229.68,103.24 								"/>
							</g>
							<g>
								<polygon class="st0" points="231.1,107.46 188.48,106.64 231.1,105.83 								"/>
							</g>
						</g>
					</g>
				</g>
			</g>
			<g>
				<g>
					<g>
						<path class="st1" d="M362.08,110.5v-0.02c-0.98,0-3.84,0.02-3.84,0.02l0,0c-11.08,0.02-13.68,7.1-16.03,11.62
							c-5.65,10.82-21.22,43.53-21.22,43.53c8.99,0,9.42-1.4,10.68-3.69c4.94-8.93,15.02-25.48,20.45-33.7
							c2.63-3.98,4.81-3.96,6.37-3.96c0.39,0,0.76,0,1.11,0h100.27c22.17,0,26.31-13.8,26.31-13.8H362.08z"/>
						<g>
							<g>
								<path class="st2" d="M458.45,109.66"/>
							</g>
							<g>
								<polygon class="st0" points="347.8,112.58 474.64,113.62 347.8,114.65 								"/>
							</g>
							<g>
								<polygon class="st0" points="344.95,116.54 466.34,117.58 344.95,118.61 								"/>
							</g>
							<g>
								<polygon class="st0" points="342.81,120.5 459.4,121.53 342.81,122.56 								"/>
							</g>
							<g>
								<polygon class="st0" points="340.46,124.46 349.23,125.49 340.46,126.52 								"/>
							</g>
							<g>
								<polygon class="st0" points="338.72,128.41 346.51,129.45 338.72,130.48 								"/>
							</g>
							<g>
								<polygon class="st0" points="336.68,132.37 344.81,133.4 336.68,134.44 								"/>
							</g>
							<g>
								<polygon class="st0" points="335.02,136.33 342.3,137.36 335.02,138.39 								"/>
							</g>
							<g>
								<polygon class="st0" points="332.7,140.28 339.71,141.32 332.7,142.35 								"/>
							</g>
							<g>
								<polygon class="st0" points="330.97,144.24 337.4,145.27 330.97,146.31 								"/>
							</g>
							<g>
								<polygon class="st0" points="328.93,148.2 334.98,149.23 328.93,150.27 								"/>
							</g>
							<g>
								<polygon class="st0" points="326.89,152.16 332.63,153.19 326.89,154.22 								"/>
							</g>
							<g>
								<polygon class="st0" points="325.15,156.12 330.39,157.15 325.15,158.18 								"/>
							</g>
							<g>
								<polygon class="st0" points="323.01,160.07 328.25,161.1 323.01,162.14 								"/>
							</g>
						</g>
					</g>
					<g>
						<g>
							<path class="st1" d="M358.51,124.28c-1.56,0-3.74-0.02-6.37,3.96c-1.73,2.61-3.92,6.06-6.27,9.83h84.51
								c22.17,0,26.31-13.79,26.31-13.79h-97.62C358.89,124.28,358.7,124.28,358.51,124.28z"/>
							<path class="st1" d="M337.49,151.85h59.34c22.16,0,26.31-13.79,26.31-13.79h-77.27
								C343.13,142.48,340.17,147.35,337.49,151.85z"/>
							<path class="st1" d="M331.68,161.94c-0.97,1.75-1.45,2.98-5.66,3.47l-0.12,0.25c0.05,0,0.1,0.01,0.15,0.01h33.78
								c22.17,0,26.31-13.79,26.31-13.79h-48.65C335.25,155.64,333.22,159.16,331.68,161.94z"/>
						</g>
						<g>
							<g>
								<polygon class="st0" points="353.14,126.04 455.32,126.85 353.14,127.67 								"/>
							</g>
							<g>
								<polygon class="st0" points="351.61,128.63 453.41,129.44 351.61,130.26 								"/>
							</g>
							<g>
								<polygon class="st0" points="349.78,131.21 450.83,132.03 349.78,132.84 								"/>
							</g>
							<g>
								<polygon class="st0" points="348.14,133.8 446.48,134.62 348.14,135.43 								"/>
							</g>
							<g>
								<polygon class="st0" points="346.41,136.39 439.54,137.21 346.41,138.02 								"/>
							</g>
							<g>
								<polygon class="st0" points="344.78,138.97 422.39,139.79 344.78,140.6 								"/>
							</g>
							<g>
								<polygon class="st0" points="343.35,141.56 420.62,142.38 343.35,143.19 								"/>
							</g>
							<g>
								<polygon class="st0" points="341.62,144.15 418.18,144.96 341.62,145.78 								"/>
							</g>
							<g>
								<polygon class="st0" points="339.98,146.74 414.5,147.55 339.98,148.37 								"/>
							</g>
							<g>
								<polygon class="st0" points="338.66,149.32 408.38,150.14 338.66,150.95 								"/>
							</g>
							<g>
								<polygon class="st0" points="336.92,151.91 385.39,152.73 336.92,153.54 								"/>
							</g>
							<g>
								<polygon class="st0" points="335.59,154.5 384.03,155.31 335.59,156.13 								"/>
							</g>
							<g>
								<polygon class="st0" points="334.06,157.08 381.85,157.9 334.06,158.71 								"/>
							</g>
							<g>
								<polygon class="st0" points="332.63,159.67 378.04,160.49 332.63,161.3 								"/>
							</g>
							<g>
								<polygon class="st0" points="331.2,162.25 373.82,163.07 331.2,163.89 								"/>
							</g>
						</g>
					</g>
				</g>
			</g>
			<g>
				<g>
					<path class="st0" d="M281.17,57.46c0.37-0.18,0.75-0.36,1.13-0.53c1.93,1.09,3.68,0.97,4.86-1.34
						c0.39-0.13,0.78-0.25,1.18-0.37c1.85,1.37,3.41,1.01,4.8-1.12c0.41-0.07,0.81-0.13,1.22-0.19c1.74,1.65,3.36,1.52,4.97-0.38
						c0.22,0-1.92-0.01-1.7-0.01h0v-0.01h-37.24c-1.59,1.81-3.36,2.02-5.07,0.4c-0.41,0.06-0.82,0.12-1.22,0.19
						c-1.4,2.13-2.96,2.49-4.8,1.12c-0.4,0.12-0.79,0.24-1.18,0.37c-1.18,2.31-2.93,2.43-4.86,1.34c-0.38,0.17-0.75,0.35-1.12,0.53
						c-0.96,2.45-3.55,2.06-5.55,1.25c-0.36,0.23-0.71,0.46-1.06,0.69c0.38,2.33-2.06,4.21-4.09,3.71c-0.34,0.28-0.67,0.56-1,0.85
						c-0.51,2.63-0.1,3.62-3.17,3.95c-0.31,0.33-0.62,0.65-0.92,0.99c-0.29,2.67-0.59,4.62-2.63,4.72
						c-0.29,0.37-0.57,0.74-0.85,1.12c-0.07,2.68-1.07,4.16-3.09,4.57c-0.25,0.41-0.5,0.82-0.75,1.24c0.15,2.66-0.73,4.29-2.69,4.99
						c-0.22,0.45-0.44,0.9-0.65,1.36c0.35,2.62-0.39,4.37-2.27,5.37c-0.18,0.48-0.36,0.97-0.54,1.46c0.56,2.56-0.04,4.41-1.82,5.7
						c-0.14,0.51-0.28,1.03-0.41,1.55c0.76,2.47,0.32,4.42-1.33,5.99c-0.1,0.54-0.2,1.09-0.29,1.64c0.95,2.36,0.68,4.39-0.82,6.23
						c-0.06,0.57-0.11,1.14-0.15,1.71c1.13,2.23,1.04,4.33-0.27,6.43c0,0.24-0.01,0.49-0.01,0.73c0,0.36,0.01,0.71,0.01,1.07
						c1.3,2.08,1.39,4.16,0.29,6.41c0.05,0.58,0.1,1.16,0.16,1.74c1.46,1.82,1.73,3.83,0.83,6.18c0.1,0.56,0.2,1.13,0.3,1.68
						c1.59,1.55,2.02,3.48,1.34,5.92c0.14,0.54,0.29,1.08,0.44,1.62c1.69,1.28,2.28,3.11,1.81,5.61c0.18,0.51,0.38,1.02,0.57,1.53
						c1.77,1.02,2.5,2.73,2.24,5.25c0.23,0.48,0.46,0.97,0.7,1.45c1.83,0.75,2.69,2.33,2.64,4.86c0.27,0.45,0.54,0.89,0.81,1.33
						c1.87,0.47,2.86,1.92,3.02,4.43c0.31,0.41,0.61,0.82,0.93,1.22c1.89,0.21,2.27,1.52,2.64,3.99c0.34,0.37,0.68,0.73,1.02,1.08
						c3.03,0.5,3.44,2.57,3.24,3.93c0.37,0.32,0.74,0.63,1.12,0.93c1.88-0.32,3.57,1.28,3.56,3.26c0.39,0.26,0.8,0.52,1.19,0.77
						c1.99-0.59,4.03,0.32,5.02,2.49c0.42,0.2,0.77,0.45,1.19,0.64c1.8-0.85,4.07-1.27,5.26,0.74c0.44,0.14,0.88,0.28,1.33,0.41
						c1.74-1.1,3.25-0.75,4.62,1.07c0.46,0.08,0.91,0.15,1.38,0.21c1.63-1.33,3.16-1.23,4.69,0.27h39.04
						c-1.53-1.51-3.06-1.6-4.69-0.27c-0.46-0.06-0.92-0.13-1.38-0.21c-1.37-1.82-2.88-2.17-4.62-1.07
						c-0.44-0.13-0.89-0.26-1.33-0.41c-1.18-2.01-3.45-1.59-5.25-0.74c-0.42-0.19-0.77-0.44-1.19-0.64
						c-0.99-2.16-3.03-3.07-5.01-2.49c-0.4-0.25-0.8-0.5-1.19-0.77c0.02-1.98-1.68-3.58-3.56-3.26c-0.37-0.31-0.75-0.62-1.11-0.93
						c0.2-1.36-0.22-3.42-3.24-3.93c-0.34-0.36-0.69-0.72-1.02-1.08c-0.37-2.47-0.75-3.78-2.64-3.99c-0.31-0.4-0.62-0.81-0.93-1.22
						c-0.16-2.51-1.15-3.96-3.02-4.43c-0.27-0.44-0.55-0.89-0.81-1.33c0.05-2.53-0.81-4.12-2.64-4.86c-0.24-0.48-0.47-0.96-0.7-1.45
						c0.26-2.52-0.47-4.24-2.24-5.25c-0.2-0.5-0.39-1.02-0.57-1.53c0.47-2.5-0.11-4.32-1.81-5.61c-0.15-0.53-0.3-1.07-0.44-1.62
						c0.68-2.44,0.25-4.36-1.33-5.92c-0.11-0.56-0.21-1.12-0.3-1.68c0.9-2.35,0.62-4.37-0.83-6.18c-0.05-0.58-0.11-1.16-0.15-1.74
						c1.1-2.25,1.01-4.33-0.29-6.41c-0.01-0.36-0.01-0.71-0.01-1.07c0-0.24,0.01-0.48,0.01-0.73c1.31-2.1,1.4-4.2,0.27-6.43
						c0.04-0.57,0.09-1.14,0.15-1.71c1.49-1.84,1.76-3.88,0.82-6.23c0.09-0.55,0.19-1.1,0.29-1.64c1.65-1.58,2.08-3.53,1.33-5.99
						c0.13-0.52,0.27-1.03,0.41-1.55c1.78-1.29,2.38-3.15,1.82-5.7c0.17-0.49,0.35-0.98,0.54-1.46c1.88-1,2.62-2.74,2.27-5.37
						c0.22-0.46,0.43-0.91,0.65-1.36c1.96-0.7,2.84-2.32,2.69-4.99c0.25-0.42,0.5-0.83,0.75-1.24c2.01-0.4,3.02-1.89,3.09-4.57
						c0.28-0.38,0.56-0.75,0.85-1.12c2.05-0.1,2.35-2.05,2.63-4.72c0.31-0.34,0.62-0.66,0.92-0.99c3.07-0.33,2.66-1.33,3.17-3.95
						c0.33-0.29,0.67-0.57,1-0.85c2.03,0.5,4.47-1.38,4.1-3.71c0.35-0.24,0.71-0.47,1.06-0.69
						C277.62,59.52,280.22,59.92,281.17,57.46z"/>
					<g>
						<g>
							<path class="st3" d="M238.35,184c-0.44,0.26-0.88,0.52-1.32,0.78c0.06,0.26,0.1,0.53,0.1,0.8c0.38,0.26,0.77,0.51,1.16,0.75
								c0.47-0.14,0.93-0.19,1.38-0.16C239.23,185.45,238.78,184.73,238.35,184z"/>
							<path class="st3" d="M252.32,188.59c-3.06,0.19-6.15,0.26-9.27,0.22c-1.21-1.81-2.37-3.66-3.47-5.53
								c3.11,0.21,6.19,0.3,9.25,0.28C249.94,185.26,251.1,186.94,252.32,188.59z"/>
						</g>
						<g>
							<g>
								<path class="st3" d="M268.39,62.91c0.75,0.11,1.53-0.08,2.19-0.48c-0.34-0.3-0.69-0.6-1.03-0.89
									C269.15,61.99,268.77,62.45,268.39,62.91z"/>
								<path class="st3" d="M266.68,66.32c0.11-0.39,0.18-0.85,0.26-1.41c-0.26,0.33-0.54,0.66-0.8,1
									C266.32,66.04,266.5,66.18,266.68,66.32z"/>
							</g>
							<path class="st3" d="M256.12,64.1c3,0.2,5.97,0.51,8.9,0.94c1.1-1.42,2.24-2.81,3.43-4.18c-2.91-0.58-5.86-1.05-8.86-1.41
								C258.39,60.97,257.23,62.52,256.12,64.1z"/>
						</g>
						<g>
							<g>
								<path class="st3" d="M262.29,72.35c0.24-0.5,0.4-1.12,0.51-1.84c-0.34,0.5-0.69,1-1.02,1.51
									C261.96,72.13,262.13,72.24,262.29,72.35z"/>
								<path class="st3" d="M264.71,67.81c0.06-0.01,0.13-0.02,0.19-0.04c-0.04-0.03-0.07-0.05-0.11-0.08
									C264.76,67.73,264.74,67.77,264.71,67.81z"/>
							</g>
							<path class="st3" d="M251.69,70.98c3-0.02,5.97,0.06,8.91,0.26c0.97-1.49,1.98-2.95,3.04-4.39c-2.93-0.36-5.91-0.6-8.91-0.73
								C253.67,67.72,252.66,69.34,251.69,70.98z"/>
						</g>
						<g>
							<path class="st3" d="M242.11,75.33c-1.6-2.59-3.11-5.28-4.54-8.05c1.03-1.9,2.12-3.78,3.26-5.63
								c1.26,2.85,2.62,5.63,4.07,8.32C243.92,71.73,242.99,73.53,242.11,75.33z"/>
							<g>
								<path class="st3" d="M259.43,75.85c-0.49,0.85-0.98,1.7-1.45,2.56c0.06,0.03,0.11,0.06,0.17,0.1
									C258.83,77.91,259.26,77.03,259.43,75.85z"/>
								<path class="st3" d="M247.86,78.14c2.98-0.25,5.94-0.39,8.88-0.42c0.84-1.55,1.73-3.08,2.65-4.58
									c-2.94-0.13-5.91-0.15-8.91-0.06C249.56,74.75,248.69,76.44,247.86,78.14z"/>
							</g>
						</g>
						<g>
							<g>
								<path class="st3" d="M231.9,67.44c-0.24,1.13-0.7,1.66-2.75,1.88c-0.3,0.32-0.61,0.64-0.9,0.96
									c-0.11,1.03-0.22,1.95-0.44,2.69c1.48,0.66,2.95,1.32,4.43,1.98c0.88-1.99,1.82-3.95,2.81-5.9
									C233.99,68.52,232.94,67.98,231.9,67.44z"/>
								<path class="st3" d="M238.69,83.19c-1.8-2.46-3.53-5.01-5.17-7.65c0.87-1.96,1.79-3.91,2.78-5.83
									c1.49,2.73,3.07,5.38,4.73,7.94C240.2,79.47,239.41,81.32,238.69,83.19z"/>
							</g>
							<g>
								<path class="st3" d="M244.63,85.54c2.95-0.48,5.88-0.84,8.8-1.08c0.71-1.6,1.46-3.18,2.26-4.74
									c-2.93,0.09-5.89,0.29-8.86,0.61C246.05,82.04,245.32,83.78,244.63,85.54z"/>
							</g>
						</g>
						<g>
							<g>
								<path class="st3" d="M231.13,77.5c-1.88-0.79-3.76-1.58-5.64-2.37c-0.22,0.28-0.43,0.56-0.65,0.85
									c-0.07,2.61-1.05,4.05-3.01,4.45c-0.08,0.13-0.16,0.26-0.24,0.4c-0.02,0.05-0.04,0.1-0.05,0.15
									c2.42,0.86,4.84,1.73,7.26,2.59C229.53,81.52,230.3,79.5,231.13,77.5z"/>
								<path class="st3" d="M236.33,66.6c1.04-1.92,2.14-3.82,3.3-5.69c-0.1-0.06-0.2-0.13-0.3-0.19c-0.37-0.1-0.74-0.22-1.08-0.36
									c-0.35,0.22-0.7,0.44-1.04,0.67c0.37,2.28-2.01,4.1-3.99,3.62c-0.06,0.05-0.12,0.1-0.19,0.16
									C234.13,65.4,235.23,66,236.33,66.6z"/>
								<g>
									<path class="st3" d="M250.63,56.95c-0.32,0.09-0.65,0.2-0.97,0.3c0.4,1.07,0.8,2.13,1.23,3.18c0.64-0.91,1.29-1.8,1.96-2.7
										C252.16,57.79,251.42,57.53,250.63,56.95z"/>
								</g>
								<path class="st3" d="M246.18,67.73c1.02-1.74,2.1-3.47,3.23-5.16c-0.51-1.18-1-2.37-1.48-3.57
									c-0.94,0.47-2.03,0.27-3.2-0.39c-0.37,0.17-0.73,0.34-1.09,0.52c-0.22,0.56-0.52,0.95-0.88,1.24
									C243.83,62.89,244.97,65.34,246.18,67.73z"/>
								<path class="st3" d="M261.16,57.53c2.99,0.43,5.94,0.97,8.84,1.61c1.23-1.34,2.51-2.65,3.83-3.93
									c-0.11-0.03-0.21-0.05-0.31-0.08c-4.39,0.02-8.24,0.04-10.33,0.06C262.49,55.95,261.82,56.74,261.16,57.53z"/>
								<path class="st3" d="M235.9,91.25c-1.99-2.3-3.91-4.7-5.75-7.2c0.71-2.02,1.48-4.02,2.3-6c1.71,2.6,3.49,5.11,5.35,7.52
									C237.11,87.44,236.48,89.34,235.9,91.25z"/>
							</g>
							<path class="st3" d="M243.79,87.78c-0.65,1.77-1.24,3.55-1.78,5.35c2.9-0.7,5.79-1.28,8.68-1.75
								c0.52-1.47,1.08-2.92,1.67-4.37c-0.01-0.04-0.01-0.07-0.01-0.11c0.07-0.14,0.13-0.27,0.2-0.41
								C249.64,86.81,246.71,87.23,243.79,87.78z"/>
						</g>
						<g>
							<g>
								<path class="st3" d="M226.09,92.38c0.56-2.08,1.17-4.15,1.84-6.21c-1.68-0.56-4.64-1.28-7.12-1.94
									c-0.4,1.1-1.16,1.86-2.33,2.28c-0.21,0.44-0.43,0.88-0.63,1.32c0.14,1.01,0.1,1.87-0.1,2.62
									C220.43,91.08,224.12,91.84,226.09,92.38z"/>
								<path class="st3" d="M233.75,99.47c-2.16-2.14-4.26-4.38-6.29-6.72c0.55-2.06,1.16-4.1,1.82-6.13
									c1.9,2.45,3.88,4.81,5.92,7.07C234.66,95.6,234.18,97.53,233.75,99.47z"/>
							</g>
							<path class="st3" d="M249.67,94.48c-0.04-0.25-0.07-0.5-0.13-0.76c0.02-0.06,0.05-0.12,0.07-0.18
								c-2.75,0.52-5.51,1.14-8.26,1.87c-0.5,1.8-0.96,3.62-1.36,5.45c2.83-0.92,5.67-1.72,8.52-2.4
								C248.86,97.13,249.25,95.8,249.67,94.48z"/>
						</g>
						<g>
							<g>
								<path class="st3" d="M224.06,101.35c0.39-2.12,0.84-4.22,1.35-6.31c-1.84-0.45-6.17-1.49-9.32-2.26
									c-0.14,0.1-0.29,0.2-0.45,0.28c-0.18,0.47-0.35,0.95-0.52,1.42c0.44,2.04,0.12,3.61-0.95,4.81
									C217.36,99.95,222.1,100.97,224.06,101.35z"/>
								<path class="st3" d="M232.24,107.81c-2.31-1.96-4.58-4.03-6.79-6.2c0.39-2.09,0.83-4.17,1.33-6.24
									c2.09,2.29,4.24,4.49,6.45,6.57C232.85,103.89,232.52,105.85,232.24,107.81z"/>
							</g>
							<g>
								<path class="st3" d="M239.5,103.2c-0.36,1.83-0.67,3.68-0.94,5.53c2.76-1.13,5.52-2.15,8.3-3.05
									c0.22-1.15,0.46-2.29,0.72-3.44c-0.06-0.41-0.14-0.83-0.28-1.26c0.02-0.07,0.04-0.14,0.06-0.21
									C244.74,101.48,242.11,102.28,239.5,103.2z"/>
							</g>
						</g>
						<g>
							<g>
								<path class="st3" d="M223.59,104.04c-1.98-0.33-7.07-0.96-10.4-1.41c0.32,1.9-0.19,3.46-1.54,4.76
									c-0.1,0.53-0.19,1.06-0.28,1.59c0.04,0.1,0.06,0.18,0.09,0.27c3.27,0.35,9.1,0.93,11.27,1.17
									C222.95,108.29,223.24,106.16,223.59,104.04z"/>
								<path class="st3" d="M231.37,116.24c-2.46-1.77-4.88-3.66-7.24-5.65c0.23-2.11,0.51-4.22,0.86-6.31
									c2.25,2.12,4.57,4.13,6.93,6.04C231.68,112.28,231.5,114.26,231.37,116.24z"/>
							</g>
							<g>
								<path class="st3" d="M246.14,110.18c-0.09-0.51-0.23-1.03-0.45-1.58c0.03-0.17,0.06-0.34,0.09-0.5
									c-2.52,0.9-5.03,1.89-7.52,2.98c-0.22,1.86-0.39,3.71-0.51,5.58c2.66-1.34,5.35-2.56,8.05-3.67
									C245.89,112.05,246.01,111.12,246.14,110.18z"/>
							</g>
						</g>
						<g>
							<g>
								<path class="st3" d="M222.46,113.15c-2.03-0.18-7.27-0.61-10.61-0.89c-0.14,0.99-0.56,1.92-1.28,2.8
									c-0.05,0.56-0.1,1.11-0.14,1.67c0.39,0.77,0.62,1.53,0.72,2.28c3.33,0.17,8.84,0.5,10.94,0.58
									C222.15,117.43,222.27,115.28,222.46,113.15z"/>
								<path class="st3" d="M231.14,124.69c-2.59-1.58-5.14-3.27-7.65-5.07c0.07-2.12,0.19-4.24,0.37-6.35
									c2.41,1.94,4.87,3.77,7.37,5.48C231.15,120.73,231.12,122.71,231.14,124.69z"/>
							</g>
							<g>
								<path class="st3" d="M245.37,118.34c-0.13-0.59-0.34-1.18-0.64-1.79c0.03-0.34,0.06-0.69,0.09-1.03
									c-2.42,1.08-4.82,2.25-7.2,3.52c-0.08,1.86-0.11,3.73-0.09,5.6c2.55-1.54,5.14-2.97,7.75-4.28
									C245.3,119.67,245.33,119.01,245.37,118.34z"/>
							</g>
						</g>
						<g>
							<g>
								<path class="st3" d="M222.02,122.31c-2.12-0.02-8.01-0.04-11.45-0.07c-0.12,0.25-0.26,0.5-0.42,0.76
									c0,0.23-0.01,0.47-0.01,0.7c0,0.35,0,0.69,0.01,1.04c0.88,1.4,1.18,2.81,0.93,4.27c3.47-0.09,9-0.18,11.03-0.27
									C222.03,126.6,222,124.45,222.02,122.31z"/>
								<path class="st3" d="M231.55,133.15c-2.7-1.38-5.37-2.87-8.01-4.47c-0.09-2.12-0.12-4.24-0.1-6.36
									c2.55,1.75,5.14,3.38,7.76,4.9C231.26,129.2,231.38,131.17,231.55,133.15z"/>
							</g>
							<g>
								<path class="st3" d="M244.48,122.95c-2.32,1.26-4.62,2.61-6.9,4.05c0.06,1.86,0.17,3.73,0.33,5.59
									c2.43-1.73,4.9-3.36,7.4-4.87c-0.02-0.37-0.02-0.74-0.03-1.11c-0.18-0.62-0.44-1.22-0.82-1.83
									c-0.01-0.36-0.01-0.71-0.01-1.07c0-0.24,0-0.48,0.01-0.73C244.47,122.97,244.47,122.96,244.48,122.95z"/>
							</g>
						</g>
						<g>
							<g>
								<path class="st3" d="M222.28,131.47c-2.17,0.14-8.3,0.88-11.68,1.2c0,0,0,0.01,0,0.01c1.42,1.77,1.68,3.74,0.81,6.03
									c0.04,0.23,0.08,0.46,0.12,0.69c3.43-0.45,9.25-1.26,11.34-1.52C222.61,135.75,222.42,133.61,222.28,131.47z"/>
								<path class="st3" d="M232.6,141.56c-2.79-1.17-5.57-2.45-8.32-3.84c-0.25-2.11-0.45-4.23-0.59-6.34
									c2.67,1.54,5.38,2.97,8.11,4.29C232.01,137.63,232.28,139.6,232.6,141.56z"/>
							</g>
							<g>
								<path class="st3" d="M245.85,134.53c-0.22-0.56-0.53-1.09-0.95-1.61c-0.05-0.58-0.11-1.16-0.16-1.74
									c0.19-0.38,0.32-0.75,0.44-1.11c-2.39,1.52-4.74,3.15-7.05,4.88c0.2,1.85,0.46,3.71,0.76,5.55
									c2.29-1.92,4.63-3.73,7.01-5.43C245.89,134.89,245.87,134.71,245.85,134.53z"/>
							</g>
						</g>
						<g>
							<g>
								<path class="st3" d="M223.22,140.59c-1.97,0.29-6.96,1.02-10.31,1.51c0.49,1.16,0.52,2.49,0.09,4.02
									c0.14,0.53,0.28,1.05,0.43,1.57c0.4,0.3,0.74,0.64,1.01,1.01c3.31-0.59,7.99-1.38,9.86-1.76
									C223.89,144.84,223.53,142.72,223.22,140.59z"/>
								<path class="st3" d="M234.29,149.87c-2.87-0.95-5.74-2.01-8.59-3.2c-0.41-2.09-0.77-4.18-1.07-6.28
									c2.79,1.34,5.59,2.55,8.41,3.65C233.4,145.99,233.82,147.94,234.29,149.87z"/>
							</g>
							<g>
								<path class="st3" d="M247,142c-0.25-0.43-0.57-0.83-0.96-1.21c-0.1-0.56-0.21-1.12-0.3-1.68c0.24-0.63,0.39-1.24,0.46-1.82
									c0-0.01,0-0.02-0.01-0.03c-2.34,1.76-4.64,3.62-6.88,5.59c0.34,1.84,0.74,3.67,1.18,5.49c2.13-2.09,4.33-4.08,6.57-5.96
									C247.04,142.25,247.02,142.12,247,142z"/>
							</g>
						</g>
						<g>
							<g>
								<path class="st3" d="M224.86,149.63c-1.58,0.36-5.92,1.44-9.54,2.33c-0.02,0.38-0.05,0.78-0.14,1.2
									c0.18,0.5,0.37,1,0.56,1.49c1.33,0.76,2.06,1.94,2.2,3.56c3.36-0.91,7.06-1.91,8.48-2.31
									C225.85,153.82,225.33,151.73,224.86,149.63z"/>
								<path class="st3" d="M236.61,158.05c-2.94-0.73-5.88-1.58-8.82-2.54c-0.57-2.05-1.09-4.12-1.55-6.19
									c2.88,1.12,5.77,2.12,8.67,3C235.43,154.24,235.99,156.16,236.61,158.05z"/>
							</g>
							<g>
								<path class="st3" d="M247.82,148.32c-0.15-0.53-0.3-1.07-0.44-1.62c0.15-0.55,0.24-1.07,0.29-1.57
									c-0.05-0.2-0.1-0.41-0.14-0.61c-2.2,1.94-4.35,3.98-6.44,6.12c0.49,1.81,1.02,3.61,1.6,5.4c1.97-2.26,4-4.41,6.09-6.47
									c-0.04-0.14-0.07-0.29-0.11-0.43C248.42,148.84,248.14,148.57,247.82,148.32z"/>
							</g>
						</g>
						<g>
							<g>
								<path class="st3" d="M228.98,164.82c-0.74-2.03-1.43-4.09-2.05-6.15c-2.14,0.66-5.81,1.68-8.34,2.44
									c0.01,0.02,0.02,0.05,0.04,0.07c0.47,0.19,0.86,0.44,1.2,0.74c0.04,0.02,0.07,0.05,0.08,0.08c0.2,0.2,0.38,0.42,0.54,0.66
									c0.02,0.03,0.04,0.06,0.06,0.09c0.06,0.11,0.12,0.22,0.18,0.34c0.03,0.07,0.06,0.13,0.09,0.2c0.05,0.11,0.09,0.21,0.13,0.32
									c0.05,0.18,0.1,0.36,0.14,0.55c0.02,0.09,0.03,0.18,0.05,0.27c0.03,0.15,0.05,0.3,0.06,0.46c0.01,0.09,0.02,0.17,0.02,0.26
									c0.02,0.25,0.03,0.5,0.02,0.76c0,0.01,0,0.02,0.01,0.02c0.26,0.44,0.52,0.86,0.79,1.29c0.09,0.03,0.17,0.06,0.26,0.09
									C224.49,166.48,226.74,165.65,228.98,164.82z"/>
								<path class="st3" d="M239.58,166.06c-2.99-0.5-6-1.13-9-1.86c-0.73-2.01-1.41-4.04-2.03-6.08c2.96,0.9,5.91,1.68,8.88,2.34
									C238.1,162.34,238.81,164.21,239.58,166.06z"/>
							</g>
							<g>
								<path class="st3" d="M249.62,153.93c0.07-0.39,0.11-0.75,0.13-1.1c-0.12-0.38-0.25-0.75-0.36-1.14
									c-2.04,2.11-4.03,4.31-5.94,6.62c0.63,1.77,1.3,3.53,2.03,5.27c1.78-2.41,3.64-4.72,5.57-6.94
									c-0.1-0.26-0.18-0.53-0.28-0.79c-0.18-0.14-0.37-0.27-0.57-0.39C250,154.95,249.81,154.44,249.62,153.93z"/>
							</g>
						</g>
						<g>
							<g>
								<path class="st3" d="M230.23,167.27c-1.9,0.75-3.8,1.5-5.7,2.25c0.22,0.57,0.36,1.24,0.41,2.02c0.3,0.4,0.6,0.8,0.9,1.19
									c1.49,0.17,2.02,1.03,2.35,2.63c1.52-0.7,3.04-1.4,4.56-2.1C231.86,171.28,231.01,169.28,230.23,167.27z"/>
								<path class="st3" d="M243.19,173.84c-3.03-0.27-6.08-0.66-9.14-1.17c-0.89-1.95-1.73-3.93-2.51-5.93
									c3.02,0.67,6.04,1.22,9.04,1.66C241.4,170.23,242.27,172.05,243.19,173.84z"/>
							</g>
							<g>
								<path class="st3" d="M252.44,160.71c0.02-0.15,0.02-0.29,0.03-0.44c-0.21-0.52-0.43-1.04-0.64-1.56
									c-1.87,2.26-3.68,4.62-5.4,7.07c0.77,1.73,1.58,3.44,2.45,5.12c1.59-2.55,3.25-5.01,5-7.37c-0.2-0.43-0.38-0.87-0.57-1.3
									c-0.05-0.02-0.1-0.06-0.16-0.08C252.9,161.68,252.67,161.19,252.44,160.71z"/>
							</g>
						</g>
						<g>
							<g>
								<path class="st3" d="M233.94,175.77c-1.36,0.67-2.72,1.33-4.08,2c2.54,0.61,2.89,2.48,2.71,3.73
									c0.36,0.31,0.72,0.61,1.08,0.91c0.54-0.09,1.05-0.02,1.52,0.17c0.59-0.33,1.19-0.67,1.79-1
									C235.9,179.66,234.9,177.73,233.94,175.77z"/>
								<path class="st3" d="M247.44,181.37c-3.05-0.04-6.13-0.2-9.23-0.48c-1.05-1.89-2.05-3.8-2.99-5.74
									c3.07,0.44,6.13,0.76,9.17,0.97C245.35,177.89,246.37,179.64,247.44,181.37z"/>
							</g>
							<g>
								<path class="st3" d="M252.87,177.99c1.37-2.67,2.83-5.26,4.38-7.77c-0.85-1.54-1.67-3.1-2.43-4.67
									c-1.69,2.41-3.3,4.91-4.82,7.5C250.91,174.72,251.87,176.37,252.87,177.99z"/>
							</g>
						</g>
						<g>
							<g>
								<path class="st3" d="M267.37,181.51c-0.26-0.97-1-1.93-2.69-2.34c0.69,0.94,1.39,1.87,2.12,2.79
									C267,181.81,267.18,181.66,267.37,181.51z"/>
								<path class="st3" d="M262.67,191.27c0.9-2.88,1.91-5.69,3.01-8.43c-1.12-1.41-2.19-2.84-3.22-4.3
									c-1.27,2.66-2.45,5.4-3.52,8.21C260.15,188.29,261.39,189.79,262.67,191.27z"/>
							</g>
						</g>
						<path class="st3" d="M272.26,187.27c-0.04-0.03-0.09-0.06-0.14-0.09c0.02-1.98-1.68-3.58-3.56-3.26
							c-0.1-0.08-0.2-0.17-0.3-0.25c-0.01,0.01-0.02,0.02-0.04,0.03c1.14,1.36,2.33,2.7,3.56,4.01
							C271.94,187.57,272.1,187.42,272.26,187.27z"/>
						<g>
							<g>
								<path class="st3" d="M272.36,190.36c-0.15,0.55-0.3,1.1-0.44,1.65h2.12C273.48,191.47,272.91,190.92,272.36,190.36z"/>
							</g>
							<path class="st3" d="M278.33,192.01c0.32-0.35,0.64-0.7,0.96-1.05c-0.32-0.17-0.62-0.36-0.96-0.52
								c-0.71-1.56-1.97-2.46-3.37-2.63c-0.53,0.52-1.06,1.04-1.59,1.56c0.89,0.9,1.81,1.78,2.74,2.64H278.33z"/>
							<path class="st3" d="M270.75,188.69c-1.25-1.33-2.45-2.69-3.61-4.07c-0.91,2.41-1.73,4.88-2.47,7.4h5.12
								C270.09,190.9,270.41,189.78,270.75,188.69z"/>
							<path class="st3" d="M257.45,56.37c-0.32-0.17-0.63-0.4-0.94-0.7c-0.25,0.04-0.49,0.07-0.74,0.11
								c-31.47,39.3-31.34,96.72,0.37,135.89c0.16,0.02,0.31,0.05,0.47,0.07c0.39-0.32,0.78-0.56,1.16-0.71
								C226.08,152.32,225.98,95.22,257.45,56.37z"/>
							<path class="st3" d="M258.27,56.68c-31.49,38.66-31.36,95.67,0.41,134.16c0.84-0.04,1.67,0.36,2.5,1.17h0.71
								c-33.88-38.73-33.94-98.03-0.17-136.83c-0.11,0-0.18,0-0.19,0C260.5,56.4,259.39,56.92,258.27,56.68z"/>
						</g>
						<g>
							<path class="st3" d="M284.78,191.82c-0.51-0.87-1.23-1.28-2.03-1.4c-0.46,0.53-0.92,1.06-1.38,1.6h4.05
								C285.2,191.95,284.99,191.89,284.78,191.82z"/>
							<path class="st3" d="M287.57,191.64c-0.35,0.06-0.72,0.18-1.09,0.37h1.57C287.88,191.89,287.73,191.76,287.57,191.64z"/>
						</g>
						<path class="st3" d="M257.47,184.79c1.14-2.78,2.38-5.5,3.72-8.12c-0.99-1.48-1.93-2.98-2.82-4.5
							c-1.49,2.54-2.89,5.17-4.19,7.88C255.23,181.66,256.33,183.24,257.47,184.79z"/>
					</g>
				</g>
				<g>
					<g>
						<path class="st4" d="M353.26,124.46c0-0.35,0.01-0.69,0.01-1.05c0-0.23-0.01-0.47-0.01-0.7c-1.35-2.12-1.44-4.23-0.27-6.48
							c-0.04-0.56-0.09-1.11-0.14-1.67c-1.54-1.85-1.81-3.89-0.83-6.28c-0.09-0.54-0.18-1.07-0.28-1.61
							c-1.7-1.57-2.13-3.53-1.34-6.03c-0.13-0.5-0.27-1.01-0.41-1.51c-1.82-1.29-2.42-3.15-1.83-5.74
							c-0.17-0.48-0.35-0.95-0.53-1.42c-1.92-0.99-2.67-2.74-2.29-5.4c-0.21-0.45-0.42-0.89-0.64-1.33c-2-0.68-2.88-2.31-2.71-5.02
							c-0.24-0.41-0.49-0.82-0.74-1.22c-2.05-0.38-3.06-1.87-3.11-4.59c-0.28-0.37-0.56-0.74-0.84-1.11
							c-2.07-0.07-3.2-1.41-3.47-4.12c-0.3-0.33-0.61-0.65-0.91-0.97c-2.07,0.23-3.31-0.94-3.81-3.6c-0.33-0.28-0.66-0.56-0.99-0.83
							c-2.04,0.53-3.38-0.46-4.11-3.04c-0.35-0.23-0.7-0.46-1.06-0.69c-2,0.83-3.42,0.03-4.38-2.44c-0.37-0.18-0.74-0.36-1.11-0.53
							c-1.94,1.11-3.43,0.53-4.61-1.8c-0.39-0.13-0.78-0.25-1.18-0.37c-1.84,1.39-3.41,1.03-4.81-1.11
							c-0.4-0.07-0.81-0.13-1.22-0.18c-1.74,1.65-3.36,1.53-4.97-0.37c-0.2,0-0.41-0.01-0.61-0.01c-0.22,0-0.44,0.01-0.66,0.01
							c-1.61,1.9-3.23,2.03-4.97,0.38c-0.41,0.05-0.81,0.12-1.22,0.19c-1.4,2.13-2.96,2.49-4.81,1.12
							c-0.39,0.12-0.79,0.24-1.18,0.37c-1.18,2.31-2.93,2.43-4.86,1.34c-0.38,0.17-0.75,0.35-1.13,0.53
							c-0.95,2.45-3.55,2.05-5.55,1.25c-0.35,0.23-0.71,0.46-1.06,0.69c0.37,2.33-2.06,4.21-4.1,3.71c-0.34,0.28-0.67,0.56-1,0.85
							c-0.51,2.63-0.1,3.62-3.17,3.96c-0.31,0.32-0.62,0.65-0.93,0.98c-0.28,2.67-0.59,4.62-2.63,4.72
							c-0.29,0.37-0.57,0.75-0.85,1.13c-0.07,2.68-1.07,4.16-3.09,4.56c-0.26,0.41-0.5,0.82-0.75,1.24
							c0.15,2.67-0.73,4.28-2.69,4.99c-0.22,0.44-0.44,0.9-0.65,1.35c0.35,2.62-0.39,4.37-2.27,5.37c-0.18,0.48-0.36,0.97-0.54,1.46
							c0.56,2.56-0.04,4.41-1.82,5.71c-0.14,0.51-0.28,1.03-0.41,1.54c0.75,2.47,0.32,4.42-1.33,5.99c-0.1,0.55-0.2,1.09-0.29,1.64
							c0.94,2.36,0.68,4.39-0.82,6.23c-0.05,0.57-0.1,1.14-0.15,1.71c1.13,2.23,1.04,4.33-0.26,6.43c0,0.24-0.01,0.48-0.01,0.72
							c0,0.36,0,0.71,0.01,1.07c1.3,2.08,1.39,4.17,0.29,6.41c0.05,0.58,0.1,1.16,0.16,1.74c1.46,1.82,1.73,3.83,0.83,6.19
							c0.1,0.56,0.2,1.12,0.3,1.68c1.59,1.55,2.02,3.48,1.34,5.92c0.14,0.54,0.29,1.08,0.44,1.62c1.69,1.28,2.28,3.11,1.81,5.6
							c0.18,0.51,0.38,1.02,0.57,1.53c1.77,1.01,2.5,2.73,2.25,5.25c0.23,0.49,0.46,0.97,0.7,1.45c1.83,0.75,2.69,2.33,2.65,4.87
							c0.27,0.45,0.54,0.89,0.81,1.33c1.87,0.48,2.86,1.92,3.02,4.43c0.31,0.41,0.62,0.82,0.93,1.22c1.89,0.21,2.26,1.52,2.64,3.98
							c0.34,0.37,0.68,0.73,1.02,1.08c3.03,0.51,3.44,2.57,3.24,3.93c0.37,0.32,0.74,0.63,1.11,0.93c1.89-0.32,3.58,1.28,3.56,3.26
							c0.4,0.26,0.79,0.52,1.2,0.77c1.99-0.59,4.03,0.32,5.01,2.49c0.42,0.21,0.77,0.45,1.19,0.64c1.81-0.84,4.07-1.27,5.25,0.74
							c0.44,0.14,0.89,0.28,1.33,0.41c1.74-1.1,3.25-0.75,4.62,1.07c0.46,0.08,0.92,0.15,1.38,0.21c1.66-1.36,3.23-1.24,4.79,0.36
							c0.24,0,0.49,0.01,0.74,0.01c0.23,0,0.46-0.01,0.68-0.01c1.57-1.6,3.13-1.72,4.79-0.36c0.46-0.06,0.92-0.13,1.37-0.21
							c1.38-1.83,2.89-2.18,4.64-1.07c0.44-0.13,0.88-0.26,1.32-0.41c1.19-2.02,2.63-2.58,4.45-1.72c0.42-0.19,0.83-0.39,1.25-0.59
							c0.99-2.19,2.37-2.96,4.23-2.35c0.4-0.25,0.79-0.5,1.18-0.76c0.78-2.32,2.08-3.28,3.98-2.93c0.37-0.3,0.74-0.61,1.1-0.92
							c0.58-2.43,1.78-3.56,3.7-3.48c0.34-0.35,0.67-0.7,1.01-1.06c0.36-2.5,1.46-3.8,3.38-3.99c0.31-0.39,0.61-0.8,0.91-1.2
							c0.15-2.55,1.14-4.01,3.04-4.46c0.27-0.43,0.54-0.86,0.8-1.3c-0.07-2.57,0.8-4.17,2.67-4.9c0.23-0.47,0.46-0.94,0.69-1.41
							c-0.29-2.57,0.45-4.29,2.26-5.29c0.19-0.5,0.38-0.99,0.56-1.49c-0.51-2.54,0.09-4.37,1.82-5.65c0.15-0.52,0.29-1.05,0.43-1.57
							c-0.72-2.47-0.29-4.41,1.35-5.96c0.1-0.54,0.2-1.09,0.29-1.64c-0.94-2.38-0.67-4.41,0.84-6.24c0.06-0.56,0.11-1.13,0.15-1.7
							C351.82,128.65,351.91,126.55,353.26,124.46z"/>
					</g>
					<path class="st5" d="M300.02,167.51c-4.36,0-8.63-1.12-12.7-3.33c-8.24-4.48-14.67-12.93-18.09-23.79
						c-3.43-10.86-3.45-22.83-0.05-33.71c5.17-16.57,17.29-27.28,30.87-27.28c4.36,0,8.64,1.12,12.7,3.33
						c8.24,4.48,14.67,12.93,18.1,23.79c3.43,10.86,3.45,22.83,0.05,33.71C325.72,156.8,313.6,167.51,300.02,167.51z"/>
					<g>
						<path class="st5" d="M298.67,122.63c0.2-0.58,0.01-1.26-0.43-1.53c-0.43-0.26-0.95-0.01-1.15,0.57
							c-0.2,0.58-0.01,1.26,0.43,1.52C297.95,123.46,298.47,123.2,298.67,122.63z"/>
						<path class="st5" d="M298.95,117.21c0.09-0.03,0.18-0.05,0.28-0.07V88.37c-3.04,0.12-5.95,0.91-8.66,2.27L298.95,117.21z"/>
						<path class="st5" d="M295.92,120.05c0.05-0.11,0.1-0.21,0.16-0.31l-15.41-20.34c-2.02,2.83-3.68,6.1-4.9,9.69L295.92,120.05z"
							/>
						<path class="st5" d="M298.68,127.34c0.44,0.27,0.96,0.02,1.16-0.56c0.2-0.58,0.01-1.26-0.43-1.52
							c-0.44-0.26-0.96-0.01-1.16,0.56C298.05,126.39,298.24,127.08,298.68,127.34z"/>
						<path class="st5" d="M297.23,118.23c0.07-0.07,0.15-0.13,0.22-0.19l-8.38-26.56c-2.68,1.6-5.13,3.78-7.25,6.41L297.23,118.23z
							"/>
						<path class="st5" d="M304.15,120.03l20.12-11.06c-1.22-3.54-2.86-6.77-4.86-9.57L304,119.75
							C304.05,119.84,304.1,119.94,304.15,120.03z"/>
						<path class="st5" d="M302.61,118.02c0.08,0.06,0.16,0.13,0.23,0.2l15.41-20.34c-2.14-2.66-4.62-4.86-7.34-6.47L302.61,118.02z
							"/>
						<path class="st5" d="M301.83,125.81c0.44,0.26,0.95,0.01,1.16-0.56c0.2-0.58,0.01-1.26-0.43-1.52
							c-0.43-0.26-0.95-0.01-1.15,0.56C301.2,124.86,301.39,125.54,301.83,125.81z"/>
						<path class="st5" d="M300.85,117.13c0.09,0.02,0.17,0.04,0.26,0.07l8.3-26.61c-2.67-1.33-5.55-2.1-8.56-2.22V117.13z"/>
						<path class="st5" d="M301.82,121.09c0.2-0.58,0.01-1.26-0.43-1.52c-0.44-0.27-0.96-0.01-1.16,0.56
							c-0.2,0.58-0.01,1.26,0.43,1.52C301.1,121.92,301.62,121.67,301.82,121.09z"/>
						<path class="st5" d="M295.3,124.89c-0.02-0.12-0.04-0.24-0.06-0.37h-21.79c0.09,4.02,0.69,7.86,1.72,11.43L295.3,124.89z"/>
						<path class="st5" d="M304.83,124.53c-0.02,0.11-0.03,0.23-0.05,0.34l20.16,10.96c1.01-3.53,1.59-7.33,1.68-11.3H304.83z"/>
						<path class="st5" d="M302.85,128.68c-0.07,0.07-0.14,0.13-0.22,0.19l8.38,26.56c2.68-1.61,5.13-3.78,7.25-6.42L302.85,128.68z
							"/>
						<path class="st5" d="M304.15,126.85c-0.05,0.11-0.1,0.21-0.15,0.31l15.41,20.34c2.02-2.83,3.68-6.1,4.91-9.69L304.15,126.85z"
							/>
						<path class="st5" d="M304.77,122.02c0.02,0.12,0.04,0.24,0.06,0.37h21.79c-0.09-4.02-0.69-7.86-1.72-11.43L304.77,122.02z"/>
						<path class="st5" d="M296.08,127.17c-0.05-0.1-0.1-0.2-0.15-0.29l-20.12,11.05c1.22,3.55,2.87,6.77,4.86,9.57L296.08,127.17z"
							/>
						<path class="st5" d="M295.25,122.38c0.02-0.12,0.03-0.23,0.05-0.34l-20.16-10.96c-1.01,3.53-1.59,7.33-1.68,11.3H295.25z"/>
						<path class="st5" d="M301.13,129.7c-0.09,0.03-0.18,0.05-0.28,0.07v28.76c3.04-0.12,5.96-0.91,8.66-2.28L301.13,129.7z"/>
						<path class="st5" d="M297.46,128.89c-0.08-0.06-0.16-0.13-0.23-0.2l-15.41,20.34c2.14,2.66,4.62,4.86,7.34,6.47L297.46,128.89
							z"/>
						<path class="st5" d="M299.22,129.78c-0.08-0.02-0.17-0.04-0.26-0.07l-8.3,26.61c2.67,1.33,5.55,2.1,8.56,2.22V129.78z"/>
					</g>
					<g>
						<path class="st5" d="M298.67,122.63c0.2-0.58,0.01-1.26-0.43-1.53c-0.43-0.26-0.95-0.01-1.15,0.57
							c-0.2,0.58-0.01,1.26,0.43,1.52C297.95,123.46,298.47,123.21,298.67,122.63z"/>
						<path class="st5" d="M298.68,127.34c0.44,0.27,0.96,0.02,1.16-0.56c0.2-0.58,0.01-1.26-0.42-1.52
							c-0.44-0.26-0.96-0.01-1.16,0.56C298.05,126.4,298.24,127.08,298.68,127.34z"/>
						<path class="st5" d="M297.23,118.23c0.07-0.07,0.15-0.13,0.22-0.19l-2.11-6.7c-0.72,0.48-1.38,1.08-1.99,1.76L297.23,118.23z"
							/>
						<path class="st5" d="M300.85,117.13c0.09,0.02,0.17,0.04,0.26,0.07l2.1-6.71c-0.75-0.32-1.54-0.53-2.35-0.61V117.13z"/>
						<path class="st5" d="M302.61,118.02c0.08,0.07,0.16,0.13,0.23,0.2l3.89-5.13c-0.62-0.69-1.3-1.3-2.03-1.78L302.61,118.02z"/>
						<path class="st5" d="M301.82,121.09c0.2-0.58,0.01-1.26-0.43-1.52c-0.44-0.27-0.95-0.01-1.16,0.57
							c-0.2,0.57-0.01,1.25,0.43,1.52C301.1,121.92,301.61,121.67,301.82,121.09z"/>
						<path class="st5" d="M295.92,120.05c0.05-0.11,0.1-0.21,0.16-0.31l-3.89-5.13c-0.53,0.82-0.99,1.71-1.36,2.67L295.92,120.05z"
							/>
						<path class="st5" d="M304.15,120.03l5.08-2.79c-0.37-0.95-0.82-1.83-1.34-2.63l-3.89,5.13
							C304.05,119.84,304.09,119.94,304.15,120.03z"/>
						<path class="st5" d="M301.83,125.81c0.44,0.27,0.95,0.01,1.15-0.56c0.2-0.58,0.01-1.26-0.43-1.52
							c-0.43-0.26-0.95-0.01-1.15,0.56C301.2,124.86,301.39,125.54,301.83,125.81z"/>
						<path class="st5" d="M298.95,117.21c0.09-0.03,0.18-0.05,0.28-0.07v-7.26c-0.83,0.09-1.63,0.3-2.39,0.63L298.95,117.21z"/>
						<path class="st5" d="M302.85,128.68c-0.07,0.07-0.14,0.13-0.22,0.2l2.11,6.7c0.72-0.48,1.38-1.08,1.99-1.76L302.85,128.68z"/>
						<path class="st5" d="M304.15,126.85c-0.05,0.11-0.1,0.21-0.15,0.31l3.89,5.13c0.53-0.82,0.98-1.71,1.35-2.68L304.15,126.85z"
							/>
						<path class="st5" d="M304.83,124.53c-0.02,0.11-0.03,0.23-0.05,0.34l5.08,2.77c0.24-0.99,0.4-2.03,0.46-3.11H304.83z"/>
						<path class="st5" d="M304.77,122.02c0.02,0.12,0.04,0.24,0.06,0.37h5.5c-0.06-1.09-0.23-2.15-0.47-3.16L304.77,122.02z"/>
						<path class="st5" d="M301.13,129.7c-0.09,0.03-0.18,0.05-0.28,0.07v7.26c0.83-0.09,1.63-0.3,2.39-0.63L301.13,129.7z"/>
						<path class="st5" d="M295.3,124.89c-0.02-0.12-0.04-0.24-0.06-0.36h-5.5c0.06,1.09,0.23,2.15,0.47,3.15L295.3,124.89z"/>
						<path class="st5" d="M296.08,127.17c-0.05-0.1-0.1-0.19-0.15-0.29l-5.08,2.79c0.37,0.95,0.82,1.83,1.34,2.63L296.08,127.17z"
							/>
						<path class="st5" d="M295.25,122.38c0.02-0.12,0.03-0.23,0.05-0.34l-5.08-2.76c-0.24,0.99-0.4,2.03-0.46,3.11H295.25z"/>
						<path class="st5" d="M299.22,129.78c-0.08-0.02-0.17-0.04-0.26-0.07l-2.1,6.72c0.75,0.32,1.54,0.53,2.35,0.61V129.78z"/>
						<path class="st5" d="M297.46,128.89c-0.08-0.06-0.16-0.13-0.23-0.2l-3.89,5.13c0.62,0.69,1.3,1.29,2.03,1.78L297.46,128.89z"
							/>
					</g>
					<g>
						<path class="st6" d="M300.04,170.34c-19.59,0-35.52-21.03-35.52-46.88c0-25.85,15.93-46.88,35.52-46.88
							c19.59,0,35.53,21.03,35.53,46.88C335.56,149.3,319.62,170.34,300.04,170.34z M300.04,82.29c-17.2,0-31.19,18.46-31.19,41.16
							c0,22.7,13.99,41.17,31.19,41.17c17.2,0,31.19-18.47,31.19-41.17C331.23,100.76,317.23,82.29,300.04,82.29z"/>
					</g>
					<g>
						<g>
							<g>
								<path class="st3" d="M321.79,80.29c3,2.6,5.63,5.65,7.82,8.99c2.2,3.33,3.96,6.95,5.38,10.68
									c1.35,3.76,2.38,7.63,2.98,11.58c0.61,3.94,0.81,7.93,0.64,11.9c-0.19-3.96-0.65-7.9-1.38-11.77
									c-0.75-3.87-1.75-7.69-3.16-11.37c-1.33-3.7-3.07-7.25-5.1-10.62C326.92,86.32,324.54,83.14,321.79,80.29z"/>
							</g>
							<g>
								<path class="st3" d="M258.23,123.44c-0.17-4.59,0.14-9.21,0.98-13.74c0.83-4.54,2.22-8.98,4.06-13.22
									c1.91-4.21,4.28-8.23,7.23-11.79c2.94-3.56,6.45-6.67,10.41-9c-3.76,2.64-7.03,5.88-9.82,9.47
									c-2.79,3.6-5.11,7.55-6.92,11.72c-1.88,4.14-3.24,8.51-4.22,12.97C258.99,114.3,258.42,118.85,258.23,123.44z"/>
							</g>
							<g>
								<path class="st3" d="M323.25,165.13c-2.96,3.65-6.8,6.6-11.06,8.68c-4.29,1.99-9.08,3.08-13.78,2.66
									c4.67-0.4,9.21-1.52,13.36-3.55C315.98,170.99,319.72,168.21,323.25,165.13z"/>
							</g>
						</g>
						<g>
							<g>
								<g>
									<path class="st3" d="M341.11,113.1c0.8,4.36,1.17,8.81,1.08,13.27c-0.07,4.46-0.63,8.9-1.53,13.27
										c-0.99,4.35-2.33,8.63-4.17,12.69c-1.83,4.07-4.15,7.91-6.92,11.37c2.45-3.69,4.49-7.63,6.17-11.69
										c1.66-4.07,2.99-8.28,3.88-12.59c0.97-4.29,1.5-8.67,1.75-13.07C341.61,121.93,341.53,117.51,341.11,113.1z"/>
								</g>
							</g>
							<g>
								<g>
									<path class="st3" d="M266.6,83.51c2.38-3.57,5.24-6.87,8.58-9.64c3.33-2.78,7.15-4.99,11.23-6.49
										c4.11-1.43,8.49-2.14,12.84-1.91c4.34,0.22,8.61,1.36,12.47,3.24c-8.03-3.04-16.99-3.29-24.95-0.33
										c-4,1.38-7.71,3.54-11.08,6.13C272.32,77.12,269.3,80.17,266.6,83.51z"/>
								</g>
							</g>
							<g>
								<g>
									<path class="st3" d="M293.67,181.05c-5.24-0.25-10.34-2.17-14.8-4.94c-4.42-2.87-8.28-6.59-11.15-10.95
										c3.57,3.8,7.35,7.35,11.73,10.05C283.75,178.02,288.58,179.92,293.67,181.05z"/>
								</g>
							</g>
						</g>
					</g>
				</g>
			</g>
		</g>
	</g>
	<g>
		<g>
			<polygon class="st7" points="116.15,15.08 121.09,25.09 132.14,26.7 124.15,34.49 126.04,45.5 116.15,40.3 106.27,45.5 
				108.16,34.49 100.16,26.7 111.21,25.09 			"/>
			<g>
				<g>
					<g>
						<path class="st3" d="M116.25,18.98c-0.26,1.38-0.66,2.71-1.06,4.04c-0.49,1.29-0.88,2.63-1.45,3.89l-0.13,0.29l-0.28,0.04
							c-2.21,0.29-4.44,0.5-6.7,0.47c2.15-0.69,4.34-1.14,6.54-1.51l-0.41,0.33c0.43-1.32,1.04-2.56,1.55-3.85
							C114.91,21.43,115.5,20.17,116.25,18.98z"/>
					</g>
				</g>
				<g>
					<g>
						<path class="st3" d="M109.19,41.41c0.93-0.85,1.92-1.58,2.96-2.24c1.03-0.67,2.1-1.27,3.2-1.81l0.23-0.11l0.18,0.08
							c1.09,0.5,2.15,1.06,3.16,1.75c-1.22-0.17-2.38-0.47-3.52-0.84l0.42-0.03c-1.03,0.67-2.1,1.28-3.2,1.81
							C111.53,40.58,110.4,41.06,109.19,41.41z"/>
					</g>
				</g>
				<g>
					<path class="st3" d="M121.4,33.53c0.88-1.14,1.84-2.17,2.88-3.12c1.01-0.98,2.11-1.85,3.22-2.72l0.24,0.83
						c-1.13-0.26-2.26-0.52-3.37-0.93c1.18-0.11,2.34-0.06,3.5,0l1.08,0.05l-0.84,0.78c-1.03,0.96-2.06,1.91-3.19,2.76
						C123.83,32.04,122.65,32.84,121.4,33.53z"/>
				</g>
			</g>
		</g>
		<g>
			<polygon class="st7" points="167.74,15.08 172.68,25.09 183.73,26.7 175.73,34.49 177.62,45.5 167.74,40.3 157.86,45.5 
				159.74,34.49 151.75,26.7 162.8,25.09 			"/>
			<g>
				<g>
					<g>
						<path class="st3" d="M167.83,18.98c-0.26,1.38-0.66,2.71-1.06,4.04c-0.49,1.29-0.88,2.63-1.45,3.89l-0.13,0.29l-0.28,0.04
							c-2.21,0.29-4.44,0.5-6.7,0.47c2.15-0.69,4.34-1.14,6.55-1.51l-0.41,0.33c0.43-1.32,1.04-2.56,1.55-3.85
							C166.49,21.43,167.09,20.17,167.83,18.98z"/>
					</g>
				</g>
				<g>
					<g>
						<path class="st3" d="M160.78,41.41c0.93-0.85,1.92-1.58,2.96-2.24c1.03-0.67,2.1-1.27,3.2-1.81l0.23-0.11l0.18,0.08
							c1.09,0.5,2.15,1.06,3.16,1.75c-1.22-0.17-2.38-0.47-3.52-0.84l0.42-0.03c-1.03,0.67-2.1,1.28-3.2,1.81
							C163.12,40.58,161.98,41.06,160.78,41.41z"/>
					</g>
				</g>
				<g>
					<path class="st3" d="M172.98,33.53c0.88-1.14,1.84-2.17,2.88-3.12c1.01-0.98,2.11-1.85,3.22-2.72l0.24,0.83
						c-1.13-0.26-2.26-0.52-3.37-0.93c1.18-0.11,2.34-0.06,3.5,0l1.08,0.05l-0.84,0.78c-1.03,0.96-2.07,1.91-3.19,2.76
						C175.41,32.04,174.24,32.84,172.98,33.53z"/>
				</g>
			</g>
		</g>
		<g>
			<polygon class="st7" points="377.32,72.82 382.26,82.83 393.31,84.44 385.32,92.23 387.21,103.24 377.32,98.04 367.44,103.24 
				369.32,92.23 361.33,84.44 372.38,82.83 			"/>
			<g>
				<g>
					<g>
						<path class="st3" d="M377.42,76.72c-0.26,1.38-0.66,2.71-1.06,4.04c-0.49,1.29-0.88,2.63-1.45,3.89l-0.13,0.29l-0.28,0.04
							c-2.21,0.29-4.44,0.5-6.7,0.47c2.15-0.69,4.34-1.15,6.54-1.51l-0.41,0.33c0.43-1.32,1.04-2.56,1.55-3.85
							C376.08,79.17,376.67,77.91,377.42,76.72z"/>
					</g>
				</g>
				<g>
					<g>
						<path class="st3" d="M370.36,99.15c0.93-0.85,1.92-1.58,2.96-2.24c1.03-0.67,2.1-1.27,3.2-1.81l0.23-0.11l0.18,0.08
							c1.09,0.5,2.15,1.06,3.16,1.76c-1.22-0.17-2.38-0.48-3.52-0.85l0.42-0.03c-1.03,0.67-2.1,1.28-3.2,1.81
							C372.71,98.32,371.57,98.8,370.36,99.15z"/>
					</g>
				</g>
				<g>
					<path class="st3" d="M382.57,91.26c0.88-1.14,1.84-2.17,2.88-3.12c1.01-0.98,2.11-1.85,3.22-2.72l0.24,0.83
						c-1.13-0.26-2.26-0.52-3.37-0.93c1.18-0.11,2.34-0.06,3.5-0.01l1.08,0.05l-0.84,0.78c-1.03,0.96-2.06,1.91-3.19,2.76
						C385,89.78,383.83,90.57,382.57,91.26z"/>
				</g>
			</g>
		</g>
		<g>
			<polygon class="st7" points="416.67,72.82 421.62,82.83 432.66,84.44 424.67,92.23 426.56,103.24 416.67,98.04 406.79,103.24 
				408.68,92.23 400.68,84.44 411.73,82.83 			"/>
			<g>
				<g>
					<g>
						<path class="st3" d="M416.77,76.72c-0.26,1.38-0.66,2.71-1.06,4.04c-0.49,1.29-0.88,2.63-1.45,3.89l-0.13,0.29l-0.28,0.04
							c-2.21,0.29-4.44,0.5-6.7,0.47c2.15-0.69,4.34-1.15,6.54-1.51l-0.41,0.33c0.43-1.32,1.04-2.56,1.55-3.85
							C415.43,79.17,416.02,77.91,416.77,76.72z"/>
					</g>
				</g>
				<g>
					<g>
						<path class="st3" d="M409.71,99.15c0.93-0.85,1.92-1.58,2.96-2.24c1.03-0.67,2.1-1.27,3.2-1.81l0.23-0.11l0.18,0.08
							c1.09,0.5,2.15,1.06,3.16,1.76c-1.22-0.17-2.38-0.48-3.52-0.85l0.42-0.03c-1.03,0.67-2.1,1.28-3.2,1.81
							C412.06,98.32,410.92,98.8,409.71,99.15z"/>
					</g>
				</g>
				<g>
					<path class="st3" d="M421.92,91.26c0.88-1.14,1.84-2.17,2.88-3.12c1.01-0.98,2.11-1.85,3.22-2.72l0.24,0.83
						c-1.13-0.26-2.26-0.52-3.37-0.93c1.18-0.11,2.34-0.06,3.5-0.01l1.08,0.05l-0.84,0.78c-1.03,0.96-2.07,1.91-3.19,2.76
						C424.35,89.78,423.18,90.57,421.92,91.26z"/>
				</g>
			</g>
		</g>
		<g>
			<polygon class="st7" points="456.02,72.82 460.96,82.83 472.02,84.44 464.02,92.23 465.91,103.24 456.02,98.04 446.14,103.24 
				448.03,92.23 440.03,84.44 451.08,82.83 			"/>
			<g>
				<g>
					<g>
						<path class="st3" d="M456.12,76.72c-0.26,1.38-0.66,2.71-1.06,4.04c-0.49,1.29-0.88,2.63-1.45,3.89l-0.13,0.29l-0.28,0.04
							c-2.21,0.29-4.44,0.5-6.7,0.47c2.15-0.69,4.34-1.15,6.54-1.51l-0.41,0.33c0.43-1.32,1.04-2.56,1.55-3.85
							C454.78,79.17,455.37,77.91,456.12,76.72z"/>
					</g>
				</g>
				<g>
					<g>
						<path class="st3" d="M449.06,99.15c0.93-0.85,1.92-1.58,2.96-2.24c1.03-0.67,2.1-1.27,3.2-1.81l0.23-0.11l0.18,0.08
							c1.09,0.5,2.15,1.06,3.17,1.76c-1.22-0.17-2.38-0.48-3.52-0.85l0.42-0.03c-1.03,0.67-2.1,1.28-3.2,1.81
							C451.41,98.32,450.27,98.8,449.06,99.15z"/>
					</g>
				</g>
				<g>
					<path class="st3" d="M461.27,91.26c0.88-1.14,1.84-2.17,2.88-3.12c1.01-0.98,2.11-1.85,3.22-2.72l0.24,0.83
						c-1.13-0.26-2.26-0.52-3.37-0.93c1.18-0.11,2.34-0.06,3.5-0.01l1.08,0.05l-0.84,0.78c-1.03,0.96-2.06,1.91-3.19,2.76
						C463.7,89.78,462.53,90.57,461.27,91.26z"/>
				</g>
			</g>
		</g>
	</g>
</g>
<g>
	<g>
		<path d="M252.33,44.31c-0.73,0.73-2.32,1.78-4.51,2.75c-5.08,2.25-10.38,1.73-13.45-3.39c-2.93-4.89-0.44-11.06,6.48-14.07
			c2.78-1.21,4.74-1.4,5.62-1.38c-0.02,0.82-0.02,1.24-0.03,2.06c-1.23,0-2.9,0.3-4.71,1.09c-5.13,2.22-7.08,6.52-4.76,10.71
			c2.16,3.9,6.04,4.92,10.54,2.96c1.46-0.63,2.84-1.5,3.66-2.3C251.64,43.37,251.87,43.69,252.33,44.31z"/>
		<path d="M257.12,37.38c-0.22,2.44-0.31,3.66-0.41,6.09c-1,0.3-1.49,0.46-2.48,0.8c0.17-7.76,0.55-11.69,1.93-19.55
			c1.44-0.36,2.17-0.53,3.62-0.83c4.68,6.46,6.74,9.84,10.26,16.74c-1.06,0.13-1.58,0.21-2.64,0.37c-1.18-2.13-1.79-3.19-3.09-5.28
			C261.42,36.26,259.98,36.59,257.12,37.38z M263.42,34.02c-1.21-1.9-1.84-2.84-3.15-4.71c-0.74-1.06-1.31-2.03-1.89-2.98
			c-0.03,0.01-0.04,0.01-0.07,0.02c-0.09,1.13-0.2,2.3-0.36,3.48c-0.36,2.26-0.51,3.39-0.77,5.64
			C259.66,34.79,260.91,34.5,263.42,34.02z"/>
		<path d="M271.24,22.42c1.51-0.38,3.72-0.66,5.82-0.72c3.26-0.1,5.37,0.45,6.78,1.52c1.13,0.86,1.71,2.14,1.62,3.55
			c-0.14,2.4-2.03,3.88-4.29,4.49c0,0.03,0,0.05,0,0.08c1.64,0.51,2.55,1.86,2.95,3.77c0.53,2.56,0.88,4.35,1.23,5.08
			c-1.02-0.07-1.54-0.1-2.56-0.13c-0.3-0.52-0.69-2.12-1.2-4.39c-0.56-2.51-1.68-3.51-4.16-3.52c-1.03,0.03-1.54,0.05-2.57,0.11
			c0.18,3.15,0.28,4.73,0.46,7.88c-0.99,0.06-1.49,0.09-2.48,0.18C272.2,33.17,271.88,29.59,271.24,22.42z M274.76,30.49
			c1.14-0.07,1.71-0.09,2.85-0.12c2.98-0.08,4.9-1.37,4.96-3.45c0.07-2.35-2.09-3.48-5.24-3.41c-1.44,0.03-2.47,0.21-2.95,0.34
			C274.53,26.5,274.61,27.83,274.76,30.49z"/>
		<path d="M290.02,22.56c1.55-0.08,3.77,0.06,5.85,0.4c3.22,0.53,5.19,1.47,6.37,2.79c0.95,1.06,1.27,2.43,0.92,3.79
			c-0.6,2.33-2.75,3.42-5.08,3.59c-0.01,0.03-0.01,0.05-0.02,0.08c1.51,0.81,2.15,2.32,2.18,4.27c0.03,2.62,0.04,4.44,0.24,5.22
			c-1-0.26-1.5-0.39-2.5-0.62c-0.19-0.57-0.27-2.21-0.34-4.54c-0.07-2.57-0.98-3.77-3.42-4.25c-1.02-0.17-1.52-0.24-2.54-0.38
			c-0.42,3.13-0.63,4.69-1.06,7.82c-0.98-0.13-1.48-0.19-2.46-0.29C288.91,33.29,289.28,29.71,290.02,22.56z M291.93,31.14
			c1.13,0.15,1.69,0.24,2.82,0.43c2.94,0.49,5.08-0.41,5.53-2.44c0.51-2.3-1.39-3.82-4.5-4.35c-1.42-0.24-2.47-0.27-2.96-0.23
			C292.46,27.19,292.28,28.51,291.93,31.14z"/>
		<path d="M323.07,41.85c-3.04,5.49-8.22,6.37-12.78,4.48c-4.73-1.95-7.14-6.45-5.6-11.74c1.61-5.56,7.21-7.97,13.12-5.51
			C323.84,31.59,325.69,37.11,323.07,41.85z M307.53,35.4c-1.21,3.7-0.1,7.66,3.62,9.21c3.75,1.56,7.35-0.38,9.23-4.07
			c1.65-3.23,1.21-7.81-3.45-9.75C312.3,28.86,308.78,31.6,307.53,35.4z"/>
		<path d="M322.6,49c0.68,1.17,1.83,2.53,3.32,3.55c2.21,1.51,4.22,1.49,5.34,0.03c1.03-1.35,0.75-2.91-1.16-5.32
			c-2.29-2.9-3.52-5.36-2.2-7.56c1.46-2.44,5.26-2.69,9.14,0.08c2.05,1.46,3.22,2.94,3.79,3.98c-0.75,0.38-1.13,0.57-1.87,0.97
			c-0.42-0.74-1.36-2.16-3.14-3.43c-2.67-1.91-4.54-1.28-5.22-0.24c-0.92,1.43-0.17,2.86,1.79,5.46c2.4,3.18,2.89,5.58,1.19,7.65
			c-1.78,2.18-5.05,2.51-8.91-0.11c-1.58-1.07-3.07-2.6-3.65-3.7C321.65,49.81,321.96,49.54,322.6,49z"/>
	</g>
</g>
<g>
	<g>
		<path d="M223.06,213.12c1.07-9.55,1.99-14.21,4.54-23.18c1.11,0.8,1.67,1.19,2.8,1.95c-1.13,4.43-1.61,6.68-2.39,11.25
			c-0.53,3.13-0.95,5.97-1.52,8.59c0.03,0.02,0.05,0.03,0.08,0.04c1.97-1.8,4.33-3.64,6.72-5.62c3.62-2.98,5.35-4.54,8.64-7.78
			c1.19,0.56,1.8,0.82,3.01,1.33c-6.52,6.75-10.16,9.9-18.12,15.54C225.29,214.43,224.54,214.01,223.06,213.12z"/>
		<path d="M242.59,214.43c-1.29,3.64,1.23,6.31,4.86,7.41c2.6,0.79,4.28,0.84,5.75,0.73c0.05,0.86,0.08,1.28,0.15,2.14
			c-1.42,0.13-3.81,0.08-7.05-0.91c-6.27-1.93-8.65-6.52-6.82-10.89s6.24-6.47,11.26-4.9c5.63,1.76,6.2,6.34,5.56,9.16
			c-0.13,0.57-0.31,0.99-0.41,1.27C250.49,217.21,247.82,216.41,242.59,214.43z M253.17,215.66c0.5-1.75,0.32-4.64-3.29-5.78
			c-3.24-1.03-5.56,0.9-6.52,2.65C247.22,213.99,249.19,214.62,253.17,215.66z"/>
		<path d="M263.15,203.89c1.19,0.21,1.78,0.31,2.98,0.48c-1.32,9.12-1.97,13.69-3.29,22.81c-1.52-0.22-2.27-0.34-3.78-0.61
			C260.69,217.49,261.51,212.96,263.15,203.89z"/>
		<path d="M287.51,219.87c0.54,5.78-4.62,8.79-9.72,8.77c-5.71-0.03-9.8-3.62-9.31-8.56c0.51-5.23,4.72-7.87,9.68-7.86
			C283.3,212.22,287.07,215.09,287.51,219.87z M272.06,220.27c-0.21,3.43,2.23,6.22,5.9,6.23c3.59,0.01,6.13-2.73,5.94-6.26
			c-0.15-2.66-1.89-5.87-5.83-5.88S272.25,217.29,272.06,220.27z"/>
		<path d="M290.19,225.96c3.31-4.1,4.8-6.22,7.43-10.53c0.64-0.99,1.24-1.88,1.87-2.9c-0.01-0.03-0.01-0.04-0.01-0.06
			c-3.91,0.9-5.88,1.24-9.85,1.72c-0.11-0.92-0.17-1.37-0.28-2.29c5.45-0.66,8.16-1.19,13.49-2.66c0.18,0.69,0.26,1.04,0.44,1.73
			c-2.21,4.39-3.48,6.57-6.36,10.8c-0.66,1.01-1.36,1.92-2.16,2.87c0,0.03,0.01,0.04,0.01,0.06c4.77-0.75,7.14-1.26,11.82-2.56
			c0.24,0.88,0.36,1.31,0.61,2.19c-6.63,1.84-10.02,2.49-16.82,3.26C290.3,226.95,290.26,226.62,290.19,225.96z"/>
		<path d="M310.39,215.7c1.31,3.63,4.94,4.11,8.47,2.65c2.53-1.05,3.89-2.08,4.98-3.11c0.59,0.63,0.88,0.94,1.48,1.56
			c-1.03,1.01-2.95,2.51-6.11,3.8c-6.11,2.5-10.82,0.44-12.17-4.1c-1.36-4.54,0.68-8.94,5.6-10.92c5.51-2.22,8.9,0.93,10.2,3.51
			c0.26,0.52,0.39,0.97,0.49,1.25C318.27,212.85,315.67,213.92,310.39,215.7z M319.4,209.93c-0.72-1.67-2.72-3.78-6.25-2.37
			c-3.18,1.27-3.74,4.22-3.38,6.19C313.69,212.43,315.62,211.67,319.4,209.93z"/>
		<path d="M329.14,212.24c1.26-0.07,3.31-0.57,4.97-1.59c2.41-1.49,2.93-3.13,2.21-4.21c-0.76-1.13-2.09-1.12-4.81-0.33
			c-3.64,1.06-5.88,0.46-6.78-1.19c-1.22-2.22-0.09-5.15,3.28-7.31c1.59-1.02,3.21-1.6,4.37-1.79c0.2,0.88,0.3,1.32,0.49,2.2
			c-0.85,0.12-2.28,0.48-3.77,1.44c-1.72,1.11-2.21,2.51-1.61,3.51c0.66,1.12,1.97,1.05,4.59,0.28c3.48-1.02,5.77-1.05,7.14,0.84
			c1.62,2.23,0.36,5.66-4.07,8.39c-2.04,1.26-4.17,1.98-5.81,2.12C329.27,213.66,329.23,213.19,329.14,212.24z"/>
	</g>
</g>
</svg>
